<svg xmlns="http://www.w3.org/2000/svg" viewBox="0 0 1200 800" role="img" aria-label="HRV on a Phone">
  <defs>
    <filter id="mute" color-interpolation-filters="sRGB">
      <feColorMatrix type="matrix" values="0.62 0.04 0.04 0 0.05  0.04 1 0.04 0 0.05  0.04 0.04 0.62 0 0.05  0 0 0 1 0"/>
    </filter>
    
    <radialGradient id="accentTL" cx="0%" cy="0%" r="85%" gradientUnits="objectBoundingBox">
      <stop offset="0%" stop-color="#c43c4a" stop-opacity="0.85"/>
      <stop offset="35%" stop-color="#c43c4a" stop-opacity="0.50"/>
      <stop offset="70%" stop-color="#c43c4a" stop-opacity="0.15"/>
      <stop offset="100%" stop-color="#c43c4a" stop-opacity="0"/>
    </radialGradient>
    <radialGradient id="accentTR" cx="100%" cy="0%" r="75%" gradientUnits="objectBoundingBox">
      <stop offset="0%" stop-color="#c43c4a" stop-opacity="0.65"/>
      <stop offset="40%" stop-color="#c43c4a" stop-opacity="0.30"/>
      <stop offset="100%" stop-color="#c43c4a" stop-opacity="0"/>
    </radialGradient>
    <radialGradient id="accentBL" cx="0%" cy="100%" r="70%" gradientUnits="objectBoundingBox">
      <stop offset="0%" stop-color="#c43c4a" stop-opacity="0.60"/>
      <stop offset="40%" stop-color="#c43c4a" stop-opacity="0.25"/>
      <stop offset="100%" stop-color="#c43c4a" stop-opacity="0"/>
    </radialGradient>
    <radialGradient id="accentBR" cx="100%" cy="100%" r="65%" gradientUnits="objectBoundingBox">
      <stop offset="0%" stop-color="#c43c4a" stop-opacity="0.50"/>
      <stop offset="45%" stop-color="#c43c4a" stop-opacity="0.20"/>
      <stop offset="100%" stop-color="#c43c4a" stop-opacity="0"/>
    </radialGradient>
    <linearGradient id="frost" x1="0" y1="0" x2="0.15" y2="1">
      <stop offset="0%" stop-color="#f3f6fa" stop-opacity="0.18"/>
      <stop offset="55%" stop-color="#e8eef8" stop-opacity="0.24"/>
      <stop offset="100%" stop-color="#f3f6fa" stop-opacity="0.3"/>
    </linearGradient>
  </defs>
  <g filter="url(#mute)">
    <defs>
      <linearGradient id="medbg" x1="0" y1="0" x2="1" y2="1"><stop offset="0%" stop-color="#142830"/><stop offset="100%" stop-color="#0a1418"/></linearGradient>
      <linearGradient id="ecg" x1="0" y1="0" x2="1" y2="0"><stop offset="0%" stop-color="#3d9ea0" stop-opacity="0"/><stop offset="30%" stop-color="#5ec8c0"/><stop offset="70%" stop-color="#0073ff"/><stop offset="100%" stop-color="#3d9ea0" stop-opacity="0"/></linearGradient>
      <filter id="medblur"><feGaussianBlur stdDeviation="3"/></filter>
    </defs>
    <rect width="1200" height="800" fill="url(#medbg)"/>
    <g fill="none" stroke="#4a9088" stroke-width="2" opacity="0.25">
      <ellipse cx="600" cy="400" rx="160" ry="160"/>
      <ellipse cx="600" cy="400" rx="260" ry="260"/>
      <ellipse cx="600" cy="400" rx="360" ry="360"/>
      <ellipse cx="600" cy="400" rx="460" ry="460"/>
    </g>
    <ellipse cx="600" cy="400" rx="100" ry="100" fill="#2a6060" opacity="0.3"/>
    <line x1="600" y1="280" x2="600" y2="520" stroke="#7ec8c0" stroke-width="1.5" opacity="0.3"/>
    <line x1="480" y1="400" x2="720" y2="400" stroke="#7ec8c0" stroke-width="1.5" opacity="0.3"/>
    <path d="M0,440 L160,440 L200,440 L230,300 L260,560 L290,400 L320,440 L480,440 L510,440 L540,260 L570,580 L600,400 L630,440 L800,440 L830,440 L860,290 L890,540 L920,420 L950,440 L1200,440"
      fill="none" stroke="url(#ecg)" stroke-width="5" opacity="0.85" filter="url(#medblur)"/>
    <path d="M0,440 L160,440 L200,440 L230,300 L260,560 L290,400 L320,440 L480,440 L510,440 L540,260 L570,580 L600,400 L630,440 L800,440 L830,440 L860,290 L890,540 L920,420 L950,440 L1200,440"
      fill="none" stroke="#c8f0ec" stroke-width="2" opacity="0.55"/>
    <path d="M0,560 L120,560 L150,560 L176,500 L200,620 L224,550 L250,560 L400,560 L440,560 L470,490 L500,630 L530,540 L560,560 L1200,560"
      fill="none" stroke="#3a7880" stroke-width="2.5" opacity="0.35"/>
    <circle cx="540" cy="260" r="7" fill="#7ec8c0" opacity="0.7"/>
    <circle cx="860" cy="290" r="6" fill="#0073ff" opacity="0.6"/>
    <rect x="0" y="390" width="1200" height="2" fill="#fff" opacity="0.06"/>
  </g>
  <rect width="1200" height="800" fill="url(#frost)"/>
  <rect width="1200" height="800" fill="url(#accentTL)"/>
  <rect width="1200" height="800" fill="url(#accentTR)"/>
  <rect width="1200" height="800" fill="url(#accentBL)"/>
  <rect width="1200" height="800" fill="url(#accentBR)"/>
  <g>
  <path d="M1160.0,-175.0 L1160.0,-290.0 L1237.1,-280.3 L1208.5,-168.9 L1257.5,-148.9 L1315.0,-248.5 L1376.9,-201.5 L1296.4,-119.3 L1328.9,-77.5 L1428.5,-135.0 L1458.6,-63.4 L1347.8,-32.4 L1355.0,20.0 L1470.0,20.0 L1460.3,97.1 L1348.9,68.5 L1328.9,117.5 L1428.5,175.0 L1381.5,236.9 L1299.3,156.4 L1257.5,188.9 L1315.0,288.5 L1243.4,318.6 L1212.4,207.8 L1160.0,215.0 L1160.0,330.0 L1082.9,320.3 L1111.5,208.9 L1062.5,188.9 L1005.0,288.5 L943.1,241.5 L1023.6,159.3 L991.1,117.5 L891.5,175.0 L861.4,103.4 L972.2,72.4 L965.0,20.0 L850.0,20.0 L859.7,-57.1 L971.1,-28.5 L991.1,-77.5 L891.5,-135.0 L938.5,-196.9 L1020.7,-116.4 L1062.5,-148.9 L1005.0,-248.5 L1076.6,-278.6 L1107.6,-167.8 Z" fill="none" stroke="#ffffff" stroke-width="12" stroke-linejoin="miter" opacity="0.55"/>
  <path d="M1160.0,-175.0 L1160.0,-290.0 L1237.1,-280.3 L1208.5,-168.9 L1257.5,-148.9 L1315.0,-248.5 L1376.9,-201.5 L1296.4,-119.3 L1328.9,-77.5 L1428.5,-135.0 L1458.6,-63.4 L1347.8,-32.4 L1355.0,20.0 L1470.0,20.0 L1460.3,97.1 L1348.9,68.5 L1328.9,117.5 L1428.5,175.0 L1381.5,236.9 L1299.3,156.4 L1257.5,188.9 L1315.0,288.5 L1243.4,318.6 L1212.4,207.8 L1160.0,215.0 L1160.0,330.0 L1082.9,320.3 L1111.5,208.9 L1062.5,188.9 L1005.0,288.5 L943.1,241.5 L1023.6,159.3 L991.1,117.5 L891.5,175.0 L861.4,103.4 L972.2,72.4 L965.0,20.0 L850.0,20.0 L859.7,-57.1 L971.1,-28.5 L991.1,-77.5 L891.5,-135.0 L938.5,-196.9 L1020.7,-116.4 L1062.5,-148.9 L1005.0,-248.5 L1076.6,-278.6 L1107.6,-167.8 Z" fill="none" stroke="#10161c" stroke-width="6" stroke-linejoin="miter" opacity="0.78"/>
  <circle cx="1160" cy="20" r="96" fill="none" stroke="#ffffff" stroke-width="11" opacity="0.55"/>
  <circle cx="1160" cy="20" r="96" fill="none" stroke="#10161c" stroke-width="6" opacity="0.78"/>
  <circle cx="1160" cy="20" r="36" fill="none" stroke="#ffffff" stroke-width="9" opacity="0.55"/>
  <circle cx="1160" cy="20" r="36" fill="none" stroke="#10161c" stroke-width="5" opacity="0.78"/>
</g>

  <foreignObject x="72" y="72" width="1056" height="67">
  <div xmlns="http://www.w3.org/1999/xhtml"
       style="display:flex;justify-content:flex-start;align-items:flex-start;width:100%;height:100%;margin:0;padding:0;">
    <div style="display:inline-block;box-sizing:border-box;
      background:#ffffff;border-radius:999px;padding:14px 24px;
      font-family:'Inter Tight', Inter, ui-sans-serif, system-ui, -apple-system, sans-serif;font-size:33px;font-weight:700;
      letter-spacing:0.12em;color:#c43c4a;line-height:1.1;
      white-space:nowrap;">APPLIED ML</div>
  </div>
</foreignObject>

  <text x="48" y="317" font-family="'Inter Tight', Inter, ui-sans-serif, system-ui, -apple-system, sans-serif" font-size="138"
        font-weight="700" letter-spacing="-0.045em"
        paint-order="stroke fill"
        stroke="#ffffff" stroke-width="11" stroke-linejoin="round" stroke-linecap="round"><tspan x="48" dy="0" fill="#10161c">HRV on a</tspan><tspan x="48" dy="141" fill="#c43c4a">Phone</tspan></text>

  <foreignObject x="72" y="661" width="1056" height="67">
  <div xmlns="http://www.w3.org/1999/xhtml"
       style="display:flex;justify-content:flex-end;align-items:flex-end;width:100%;height:100%;margin:0;padding:0;">
    <div style="display:inline-block;box-sizing:border-box;
      background:#ffffff;border-radius:999px;padding:14px 24px;
      font-family:'Inter Tight', Inter, ui-sans-serif, system-ui, -apple-system, sans-serif;font-size:33px;font-weight:700;
      letter-spacing:0.14em;color:#c43c4a;line-height:1.1;
      white-space:nowrap;">PPG</div>
  </div>
</foreignObject>
</svg>
