<svg xmlns="http://www.w3.org/2000/svg" viewBox="0 0 1600 800" role="img" aria-label="HRV on a Phone">
  <defs>
    <filter id="mute" color-interpolation-filters="sRGB">
      <feColorMatrix type="matrix" values="1 0.04 0.04 0 0.05  0.04 1 0.04 0 0.05  0.04 0.04 0.62 0 0.05  0 0 0 1 0"/>
    </filter>
    
    <radialGradient id="accentTL" cx="0%" cy="0%" r="85%" gradientUnits="objectBoundingBox">
      <stop offset="0%" stop-color="#1a9a88" stop-opacity="0.85"/>
      <stop offset="35%" stop-color="#1a9a88" stop-opacity="0.50"/>
      <stop offset="70%" stop-color="#1a9a88" stop-opacity="0.15"/>
      <stop offset="100%" stop-color="#1a9a88" stop-opacity="0"/>
    </radialGradient>
    <radialGradient id="accentTR" cx="100%" cy="0%" r="75%" gradientUnits="objectBoundingBox">
      <stop offset="0%" stop-color="#1a9a88" stop-opacity="0.65"/>
      <stop offset="40%" stop-color="#1a9a88" stop-opacity="0.30"/>
      <stop offset="100%" stop-color="#1a9a88" stop-opacity="0"/>
    </radialGradient>
    <radialGradient id="accentBL" cx="0%" cy="100%" r="70%" gradientUnits="objectBoundingBox">
      <stop offset="0%" stop-color="#1a9a88" stop-opacity="0.60"/>
      <stop offset="40%" stop-color="#1a9a88" stop-opacity="0.25"/>
      <stop offset="100%" stop-color="#1a9a88" stop-opacity="0"/>
    </radialGradient>
    <radialGradient id="accentBR" cx="100%" cy="100%" r="65%" gradientUnits="objectBoundingBox">
      <stop offset="0%" stop-color="#1a9a88" stop-opacity="0.50"/>
      <stop offset="45%" stop-color="#1a9a88" stop-opacity="0.20"/>
      <stop offset="100%" stop-color="#1a9a88" stop-opacity="0"/>
    </radialGradient>
    <linearGradient id="frost" x1="0" y1="0" x2="0.15" y2="1">
      <stop offset="0%" stop-color="#f3f6fa" stop-opacity="0.18"/>
      <stop offset="55%" stop-color="#e8eef8" stop-opacity="0.24"/>
      <stop offset="100%" stop-color="#f3f6fa" stop-opacity="0.3"/>
    </linearGradient>
  </defs>
  <g filter="url(#mute)">
    <defs>
      <linearGradient id="visbg" x1="0" y1="0" x2="1" y2="1">
        <stop offset="0%" stop-color="#243a52"/><stop offset="100%" stop-color="#152636"/>
      </linearGradient>
      <radialGradient id="vislens">
        <stop offset="0%" stop-color="#e8f4ff"/><stop offset="35%" stop-color="#5a9ad0"/>
        <stop offset="70%" stop-color="#1e4a78"/><stop offset="100%" stop-color="#0a2030"/>
      </radialGradient>
    </defs>
    <rect width="1600" height="800" fill="url(#visbg)"/>
    <ellipse cx="320" cy="200" rx="280" ry="180" fill="#0073ff" opacity="0.1"/>
    <ellipse cx="980" cy="560" rx="320" ry="220" fill="#22d3ee" opacity="0.08"/>
    <!-- Camera body -->
    <rect x="620" y="220" width="420" height="300" rx="36" fill="#2a4868" stroke="#9ec8e8" stroke-width="3" opacity="0.85"/>
    <rect x="650" y="250" width="120" height="36" rx="10" fill="#1a3048"/>
    <circle cx="860" cy="370" r="108" fill="#122030" stroke="#c8e4f8" stroke-width="4"/>
    <circle cx="860" cy="370" r="78" fill="url(#vislens)"/>
    <circle cx="860" cy="370" r="28" fill="#0a1828" opacity="0.7"/>
    <circle cx="830" cy="340" r="14" fill="#fff" opacity="0.35"/>
    <!-- Viewfinder / corner brackets (detection UI) -->
    <g fill="none" stroke="#7ec0ff" stroke-width="3" opacity="0.55">
      <path d="M180,160 L180,120 L240,120"/><path d="M400,120 L460,120 L460,160"/>
      <path d="M180,320 L180,360 L240,360"/><path d="M400,360 L460,360 L460,320"/>
    </g>
    <rect x="200" y="150" width="240" height="190" rx="8" fill="#0073ff" opacity="0.08" stroke="#7ec0ff" stroke-width="1.5"/>
    <circle cx="320" cy="245" r="6" fill="#22d3ee" opacity="0.8"/>
    <line x1="200" y1="200" x2="440" y2="200" stroke="#7ec0ff" stroke-width="1" opacity="0.25"/>
    <line x1="200" y1="290" x2="440" y2="290" stroke="#7ec0ff" stroke-width="1" opacity="0.25"/>
  </g>
  <rect width="1600" height="800" fill="url(#frost)"/>
  <rect width="1600" height="800" fill="url(#accentTL)"/>
  <rect width="1600" height="800" fill="url(#accentTR)"/>
  <rect width="1600" height="800" fill="url(#accentBL)"/>
  <rect width="1600" height="800" fill="url(#accentBR)"/>
  <g>
  <path d="M1560.0,-175.0 L1560.0,-290.0 L1637.1,-280.3 L1608.5,-168.9 L1657.5,-148.9 L1715.0,-248.5 L1776.9,-201.5 L1696.4,-119.3 L1728.9,-77.5 L1828.5,-135.0 L1858.6,-63.4 L1747.8,-32.4 L1755.0,20.0 L1870.0,20.0 L1860.3,97.1 L1748.9,68.5 L1728.9,117.5 L1828.5,175.0 L1781.5,236.9 L1699.3,156.4 L1657.5,188.9 L1715.0,288.5 L1643.4,318.6 L1612.4,207.8 L1560.0,215.0 L1560.0,330.0 L1482.9,320.3 L1511.5,208.9 L1462.5,188.9 L1405.0,288.5 L1343.1,241.5 L1423.6,159.3 L1391.1,117.5 L1291.5,175.0 L1261.4,103.4 L1372.2,72.4 L1365.0,20.0 L1250.0,20.0 L1259.7,-57.1 L1371.1,-28.5 L1391.1,-77.5 L1291.5,-135.0 L1338.5,-196.9 L1420.7,-116.4 L1462.5,-148.9 L1405.0,-248.5 L1476.6,-278.6 L1507.6,-167.8 Z" fill="none" stroke="#ffffff" stroke-width="12" stroke-linejoin="miter" opacity="0.55"/>
  <path d="M1560.0,-175.0 L1560.0,-290.0 L1637.1,-280.3 L1608.5,-168.9 L1657.5,-148.9 L1715.0,-248.5 L1776.9,-201.5 L1696.4,-119.3 L1728.9,-77.5 L1828.5,-135.0 L1858.6,-63.4 L1747.8,-32.4 L1755.0,20.0 L1870.0,20.0 L1860.3,97.1 L1748.9,68.5 L1728.9,117.5 L1828.5,175.0 L1781.5,236.9 L1699.3,156.4 L1657.5,188.9 L1715.0,288.5 L1643.4,318.6 L1612.4,207.8 L1560.0,215.0 L1560.0,330.0 L1482.9,320.3 L1511.5,208.9 L1462.5,188.9 L1405.0,288.5 L1343.1,241.5 L1423.6,159.3 L1391.1,117.5 L1291.5,175.0 L1261.4,103.4 L1372.2,72.4 L1365.0,20.0 L1250.0,20.0 L1259.7,-57.1 L1371.1,-28.5 L1391.1,-77.5 L1291.5,-135.0 L1338.5,-196.9 L1420.7,-116.4 L1462.5,-148.9 L1405.0,-248.5 L1476.6,-278.6 L1507.6,-167.8 Z" fill="none" stroke="#10161c" stroke-width="6" stroke-linejoin="miter" opacity="0.78"/>
  <circle cx="1560" cy="20" r="96" fill="none" stroke="#ffffff" stroke-width="11" opacity="0.55"/>
  <circle cx="1560" cy="20" r="96" fill="none" stroke="#10161c" stroke-width="6" opacity="0.78"/>
  <circle cx="1560" cy="20" r="36" fill="none" stroke="#ffffff" stroke-width="9" opacity="0.55"/>
  <circle cx="1560" cy="20" r="36" fill="none" stroke="#10161c" stroke-width="5" opacity="0.78"/>
</g>

  <foreignObject x="72" y="72" width="1456" height="67">
  <div xmlns="http://www.w3.org/1999/xhtml"
       style="display:flex;justify-content:flex-start;align-items:flex-start;width:100%;height:100%;margin:0;padding:0;">
    <div style="display:inline-block;box-sizing:border-box;
      background:#ffffff;border-radius:999px;padding:14px 24px;
      font-family:'Inter Tight', Inter, ui-sans-serif, system-ui, -apple-system, sans-serif;font-size:33px;font-weight:700;
      letter-spacing:0.12em;color:#1a9a88;line-height:1.1;
      white-space:nowrap;">APPLIED ML</div>
  </div>
</foreignObject>

  <text x="48" y="317" font-family="'Inter Tight', Inter, ui-sans-serif, system-ui, -apple-system, sans-serif" font-size="138"
        font-weight="700" letter-spacing="-0.045em"
        paint-order="stroke fill"
        stroke="#ffffff" stroke-width="11" stroke-linejoin="round" stroke-linecap="round"><tspan x="48" dy="0" fill="#10161c">HRV on a</tspan><tspan x="48" dy="141" fill="#1a9a88">Phone</tspan></text>

  <foreignObject x="72" y="661" width="1456" height="67">
  <div xmlns="http://www.w3.org/1999/xhtml"
       style="display:flex;justify-content:flex-end;align-items:flex-end;width:100%;height:100%;margin:0;padding:0;">
    <div style="display:inline-block;box-sizing:border-box;
      background:#ffffff;border-radius:999px;padding:14px 24px;
      font-family:'Inter Tight', Inter, ui-sans-serif, system-ui, -apple-system, sans-serif;font-size:33px;font-weight:700;
      letter-spacing:0.14em;color:#1a9a88;line-height:1.1;
      white-space:nowrap;">PPG</div>
  </div>
</foreignObject>
</svg>
